{
  "source": "C:\\Users\\Peter\\Desktop\\stuff\\MIUN\\quantitative_research\\video_compression\\videos\\BVI-HD\\BVI-HD_CDVL_videos\\ORIG\\Typing_1920x1080_60fps.mp4",
  "output": "C:\\Users\\Peter\\Desktop\\stuff\\MIUN\\quantitative_research\\video_compression\\compressed_videos\\BVI-HD\\h264\\3\\Typing_1920x1080_60fps_h264.mp4",
  "codec": "h264",
  "ok": "Input #0, mov,mp4,m4a,3gp,3g2,mj2, from 'C:\\Users\\Peter\\Desktop\\stuff\\MIUN\\quantitative_research\\video_compression\\videos\\BVI-HD\\BVI-HD_CDVL_videos\\ORIG\\Typing_1920x1080_60fps.mp4':\n  Metadata:\n    major_brand     : isom\n    minor_version   : 512\n    compatible_brands: isomiso2avc1mp41\n    encoder         : Lavf54.28.101\n  Duration: 00:00:05.00, start: 0.000000, bitrate: 203453 kb/s\n  Stream #0:0[0x1](und): Video: h264 (High 4:4:4 Predictive) (avc1 / 0x31637661), yuv420p(progressive), 1920x1080, 203448 kb/s, 60 fps, 60 tbr, 60 tbn (default)\n    Metadata:\n      handler_name    : VideoHandler\n      vendor_id       : [0][0][0][0]\n[out#0/mp4 @ 000001d387a11500] Codec AVOption b:a (set bitrate (in bits/s)) has not been used for any stream. The most likely reason is either wrong type (e.g. a video option with no video streams) or that it is a private option of some decoder which was not actually used for any stream.\nStream mapping:\n  Stream #0:0 -> #0:0 (h264 (native) -> h264 (libx264))\nPress [q] to stop, [?] for help\n[libx264 @ 000001d387fe0940] using cpu capabilities: MMX2 SSE2Fast SSSE3 SSE4.2 AVX FMA3 BMI2 AVX2\n[libx264 @ 000001d387fe0940] profile High, level 5.0, 4:2:0, 8-bit\n[libx264 @ 000001d387fe0940] 264 - core 165 r3222 b35605a - H.264/MPEG-4 AVC codec - Copyleft 2003-2025 - http://www.videolan.org/x264.html - options: cabac=1 ref=5 deblock=1:0:0 analyse=0x3:0x113 me=hex subme=8 psy=1 psy_rd=1.00:0.00 mixed_ref=1 me_range=16 chroma_me=1 trellis=2 8x8dct=1 cqm=0 deadzone=21,11 fast_pskip=1 chroma_qp_offset=-2 threads=18 lookahead_threads=3 sliced_threads=0 nr=0 decimate=1 interlaced=0 bluray_compat=0 constrained_intra=0 bframes=3 b_pyramid=2 b_adapt=1 b_bias=0 direct=3 weightb=1 open_gop=0 weightp=2 keyint=250 keyint_min=25 scenecut=40 intra_refresh=0 rc_lookahead=50 rc=cbr mbtree=1 bitrate=3000 ratetol=1.0 qcomp=0.60 qpmin=0 qpmax=69 qpstep=4 vbv_maxrate=3000 vbv_bufsize=3000 nal_hrd=none filler=0 ip_ratio=1.40 aq=1:1.00\nOutput #0, mp4, to 'C:\\Users\\Peter\\Desktop\\stuff\\MIUN\\quantitative_research\\video_compression\\compressed_videos\\BVI-HD\\h264\\3\\Typing_1920x1080_60fps_h264.mp4':\n  Metadata:\n    major_brand     : isom\n    minor_version   : 512\n    compatible_brands: isomiso2avc1mp41\n    encoder         : Lavf62.3.100\n  Stream #0:0(und): Video: h264 (avc1 / 0x31637661), yuv420p(tv, progressive), 1920x1080, q=2-31, 3000 kb/s, 60 fps, 15360 tbn (default)\n    Metadata:\n      encoder         : Lavc62.11.100 libx264\n      handler_name    : VideoHandler\n      vendor_id       : [0][0][0][0]\n    Side data:\n      cpb: bitrate max/min/avg: 3000000/0/3000000 buffer size: 3000000 vbv_delay: N/A\nframe=    0 fps=0.0 q=0.0 size=       0KiB time=N/A bitrate=N/A speed=N/A elapsed=0:00:00.52    \nframe=    0 fps=0.0 q=0.0 size=       0KiB time=N/A bitrate=N/A speed=N/A elapsed=0:00:01.10    \nframe=   24 fps= 14 q=33.0 size=       0KiB time=00:00:00.23 bitrate=   1.6kbits/s speed=0.138x elapsed=0:00:01.68    \nframe=   56 fps= 24 q=33.0 size=       0KiB time=00:00:00.83 bitrate=   0.5kbits/s speed=0.361x elapsed=0:00:02.31    \nframe=   88 fps= 31 q=33.0 size=     256KiB time=00:00:01.43 bitrate=1463.4kbits/s speed=0.499x elapsed=0:00:02.87    \nframe=  116 fps= 34 q=32.0 size=     256KiB time=00:00:01.81 bitrate=1154.6kbits/s speed=0.528x elapsed=0:00:03.43    \nframe=  144 fps= 36 q=32.0 size=     512KiB time=00:00:02.26 bitrate=1850.6kbits/s speed=0.565x elapsed=0:00:04.01    \nframe=  176 fps= 38 q=32.0 size=     768KiB time=00:00:02.81 bitrate=2233.8kbits/s speed=0.61x elapsed=0:00:04.61    \nframe=  204 fps= 39 q=33.0 size=     768KiB time=00:00:03.36 bitrate=1868.9kbits/s speed=0.644x elapsed=0:00:05.23    \nframe=  233 fps= 40 q=32.0 size=    1024KiB time=00:00:03.85 bitrate=2179.0kbits/s speed=0.669x elapsed=0:00:05.75    \nframe=  275 fps= 44 q=32.0 size=    1280KiB time=00:00:04.55 bitrate=2304.6kbits/s speed=0.724x elapsed=0:00:06.28    \n[mp4 @ 000001d387a11640] Starting second pass: moving the moov atom to the beginning of the file\n[out#0/mp4 @ 000001d387a11500] video:1465KiB audio:0KiB subtitle:0KiB other streams:0KiB global headers:0KiB muxing overhead: 0.298131%\nframe=  300 fps= 46 q=-1.0 Lsize=    1469KiB time=00:00:04.96 bitrate=2422.8kbits/s speed=0.755x elapsed=0:00:06.57    \n[libx264 @ 000001d387fe0940] frame I:2     Avg QP:27.89  size: 67328\n[libx264 @ 000001d387fe0940] frame P:76    Avg QP:26.66  size:  9880\n[libx264 @ 000001d387fe0940] frame B:222   Avg QP:29.04  size:  2763\n[libx264 @ 000001d387fe0940] consecutive B-frames:  1.3%  0.0%  0.0% 98.7%\n[libx264 @ 000001d387fe0940] mb I  I16..4: 24.1% 72.7%  3.2%\n[libx264 @ 000001d387fe0940] mb P  I16..4:  3.7%  4.5%  0.1%  P16..4: 27.4%  1.8%  1.6%  0.0%  0.0%    skip:60.9%\n[libx264 @ 000001d387fe0940] mb B  I16..4:  0.3%  0.4%  0.0%  B16..8: 15.9%  0.9%  0.1%  direct: 0.6%  skip:81.8%  L0:46.2% L1:52.1% BI: 1.7%\n[libx264 @ 000001d387fe0940] 8x8 transform intra:58.4% inter:93.9%\n[libx264 @ 000001d387fe0940] direct mvs  spatial:95.5% temporal:4.5%\n[libx264 @ 000001d387fe0940] coded y,uvDC,uvAC intra: 32.6% 47.6% 7.8% inter: 2.1% 4.5% 0.1%\n[libx264 @ 000001d387fe0940] i16 v,h,dc,p: 11% 34%  8% 47%\n[libx264 @ 000001d387fe0940] i8 v,h,dc,ddl,ddr,vr,hd,vl,hu:  7% 18% 18%  6% 12%  7% 13%  6% 13%\n[libx264 @ 000001d387fe0940] i4 v,h,dc,ddl,ddr,vr,hd,vl,hu:  6% 15%  5%  6% 26% 10% 15%  6% 12%\n[libx264 @ 000001d387fe0940] i8c dc,h,v,p: 53% 32% 10%  5%\n[libx264 @ 000001d387fe0940] Weighted P-Frames: Y:0.0% UV:0.0%\n[libx264 @ 000001d387fe0940] ref P L0: 45.1% 11.7% 18.0% 10.3% 14.9%\n[libx264 @ 000001d387fe0940] ref B L0: 71.7% 15.9%  9.2%  3.1%\n[libx264 @ 000001d387fe0940] ref B L1: 90.5%  9.5%\n[libx264 @ 000001d387fe0940] kb/s:2398.26\n",
  "seconds": 6.911116361618042,
  "probe_out": {}
}